<svg width="16" height="16" viewBox="0 0 16 16" fill="none" xmlns="http://www.w3.org/2000/svg">
<path d="M1.74902 7.33383C1.43837 7.3347 1.13431 7.42351 0.872016 7.58997C0.609726 7.75644 0.399928 7.99377 0.266892 8.2745C0.133857 8.55523 0.0830212 8.86789 0.120267 9.17631C0.157512 9.48472 0.281316 9.77629 0.477357 10.0173L4.65647 15.1367C4.80548 15.3217 4.99648 15.4685 5.21361 15.5649C5.43074 15.6613 5.66774 15.7045 5.90491 15.6908C6.41216 15.6636 6.87013 15.3923 7.16211 14.9461L15.8432 0.965219C15.8446 0.9629 15.8461 0.960581 15.8476 0.958296C15.9291 0.833231 15.9027 0.585385 15.7345 0.429685C15.6884 0.386927 15.6339 0.354078 15.5745 0.333159C15.5152 0.312241 15.4522 0.303696 15.3894 0.308051C15.3266 0.312406 15.2654 0.329569 15.2095 0.358483C15.1535 0.387397 15.1042 0.427449 15.0643 0.476173C15.0612 0.480004 15.058 0.483777 15.0547 0.487492L6.2997 10.3793C6.26639 10.417 6.22592 10.4476 6.18067 10.4695C6.13541 10.4914 6.08625 10.504 6.03606 10.5067C5.98587 10.5095 5.93564 10.5022 5.88828 10.4853C5.84093 10.4684 5.7974 10.4423 5.76022 10.4085L2.8546 7.76437C2.55283 7.48774 2.1584 7.33414 1.74902 7.33383Z" fill="#FFCC00"/>
</svg>
