<svg width="16" height="16" viewBox="0 0 16 16" fill="none" xmlns="http://www.w3.org/2000/svg">
<path d="M1.74927 7.33383C1.43861 7.3347 1.13455 7.42351 0.87226 7.58997C0.60997 7.75644 0.400172 7.99377 0.267137 8.2745C0.134101 8.55523 0.0832654 8.86789 0.120511 9.17631C0.157756 9.48472 0.281561 9.77629 0.477601 10.0173L4.65672 15.1367C4.80572 15.3217 4.99672 15.4685 5.21386 15.5649C5.43099 15.6613 5.66798 15.7045 5.90515 15.6908C6.41241 15.6636 6.87037 15.3923 7.16235 14.9461L15.8434 0.965219C15.8449 0.9629 15.8463 0.960581 15.8479 0.958296C15.9293 0.833231 15.9029 0.585385 15.7348 0.429685C15.6886 0.386927 15.6341 0.354078 15.5748 0.333159C15.5154 0.312241 15.4524 0.303696 15.3896 0.308051C15.3268 0.312406 15.2656 0.329569 15.2097 0.358483C15.1538 0.387397 15.1044 0.427449 15.0646 0.476173C15.0614 0.480004 15.0582 0.483777 15.0549 0.487492L6.29994 10.3793C6.26663 10.417 6.22617 10.4476 6.18091 10.4695C6.13565 10.4914 6.0865 10.504 6.03631 10.5067C5.98611 10.5095 5.93588 10.5022 5.88853 10.4853C5.84117 10.4684 5.79764 10.4423 5.76046 10.4085L2.85485 7.76437C2.55307 7.48774 2.15865 7.33414 1.74927 7.33383Z" fill="#DB001B"/>
</svg>
