<svg width="90" height="90" viewBox="0 0 90 90" fill="none" xmlns="http://www.w3.org/2000/svg">
<g clip-path="url(#clip0_4325_2326)">
<path d="M87.1875 44.2969H70.2919C67.8125 41.003 64.7147 38.2241 61.1719 36.1157V19.6875C61.1719 19.1281 60.9496 18.5915 60.5541 18.1959C60.1585 17.8004 59.6219 17.5781 59.0625 17.5781C58.5031 17.5781 57.9665 17.8004 57.5709 18.1959C57.1754 18.5915 56.9531 19.1281 56.9531 19.6875V34.0088C49.2972 30.8512 40.7028 30.8512 33.0469 34.0088V19.6875C33.0469 19.1281 32.8246 18.5915 32.4291 18.1959C32.0335 17.8004 31.4969 17.5781 30.9375 17.5781C30.3781 17.5781 29.8415 17.8004 29.4459 18.1959C29.0504 18.5915 28.8281 19.1281 28.8281 19.6875V36.1158C25.2854 38.2243 22.1876 41.0032 19.7081 44.2969H2.8125C2.53548 44.2968 2.26117 44.3514 2.00523 44.4574C1.74929 44.5633 1.51673 44.7187 1.32085 44.9146C1.12497 45.1105 0.969596 45.343 0.863605 45.599C0.757614 45.8549 0.703083 46.1292 0.703125 46.4062V74.5312C0.703083 74.8083 0.757614 75.0826 0.863605 75.3385C0.969596 75.5945 1.12497 75.827 1.32085 76.0229C1.51673 76.2188 1.74929 76.3742 2.00523 76.4801C2.26117 76.5861 2.53548 76.6407 2.8125 76.6406H19.7081C22.651 80.5699 26.4689 83.7594 30.8591 85.9562C35.2492 88.1531 40.0909 89.2969 45 89.2969C49.9091 89.2969 54.7508 88.1531 59.1409 85.9562C63.5311 83.7594 67.349 80.5699 70.2919 76.6406H87.1875C87.7469 76.6406 88.2834 76.4184 88.679 76.0228C89.0746 75.6272 89.2969 75.0907 89.2969 74.5312V46.4062C89.2969 45.8468 89.0746 45.3103 88.679 44.9147C88.2834 44.5191 87.7469 44.2969 87.1875 44.2969ZM85.0781 72.4219H69.2152C68.8757 72.4217 68.5411 72.5037 68.24 72.6608C67.939 72.8179 67.6804 73.0455 67.4863 73.3241C64.9643 76.952 61.6021 79.9157 57.6864 81.9625C53.7708 84.0092 49.4181 85.0782 44.9998 85.0781C40.5815 85.0781 36.2289 84.009 32.3133 81.9621C28.3977 79.9152 25.0356 76.9513 22.5137 73.3234C22.3193 73.045 22.0605 72.8177 21.7594 72.6607C21.4582 72.5038 21.1236 72.4218 20.7841 72.4219H4.92188V48.5156H20.7841C21.1237 48.5157 21.4582 48.4337 21.7594 48.2768C22.0605 48.1198 22.3193 47.8925 22.5138 47.6141C25.0356 43.9862 28.3978 41.0223 32.3133 38.9754C36.2289 36.9285 40.5816 35.8594 44.9998 35.8594C49.4181 35.8593 53.7708 36.9283 57.6865 38.975C61.6021 41.0218 64.9644 43.9855 67.4863 47.6134C67.6804 47.892 67.939 48.1196 68.2401 48.2767C68.5411 48.4338 68.8757 48.5158 69.2153 48.5156H85.0781V72.4219Z" fill="#282B2D"/>
<path d="M46.3354 43.3672C45.9584 43.0592 45.4866 42.8909 44.9998 42.8909C44.513 42.8909 44.0412 43.0592 43.6643 43.3672C43.1692 43.7723 31.5464 53.4163 31.5464 65.1092C31.6199 68.6072 33.0774 71.9333 35.5992 74.3585C38.1211 76.7837 41.5016 78.1101 44.9998 78.0469C48.498 78.1101 51.8784 76.7837 54.4002 74.3584C56.9219 71.9332 58.3792 68.6071 58.4526 65.1092C58.4526 53.4163 46.8304 43.7724 46.3354 43.3672ZM44.9998 73.8282C42.6203 73.8919 40.3125 73.0102 38.5816 71.376C36.8508 69.7419 35.8381 67.4884 35.7651 65.1092C35.7651 57.543 42.1585 50.5695 45.0019 47.8428C47.8467 50.5633 54.2338 57.5183 54.2338 65.1092C54.1611 67.4884 53.1485 69.7418 51.4177 71.376C49.687 73.0101 47.3793 73.8919 44.9998 73.8282Z" fill="#282B2D"/>
<path d="M37.2658 17.5781V23.9766C37.1931 24.618 37.3725 25.2625 37.7661 25.7741C38.1597 26.2858 38.7366 26.6245 39.3752 26.7188H50.6252C51.2637 26.6244 51.8407 26.2857 52.2342 25.774C52.6278 25.2624 52.8072 24.6179 52.7346 23.9766V17.5781H37.2658Z" fill="#FFCC00"/>
<path d="M61.875 0.703125H28.125C26.4467 0.703125 24.8371 1.36984 23.6503 2.55659C22.4636 3.74334 21.7969 5.35293 21.7969 7.03125C21.7969 8.70957 22.4636 10.3192 23.6503 11.5059C24.8371 12.6927 26.4467 13.3594 28.125 13.3594H61.875C63.5533 13.3594 65.1629 12.6927 66.3497 11.5059C67.5364 10.3192 68.2031 8.70957 68.2031 7.03125C68.2031 5.35293 67.5364 3.74334 66.3497 2.55659C65.1629 1.36984 63.5533 0.703125 61.875 0.703125Z" fill="#FFCC00"/>
</g>
<defs>
<clipPath id="clip0_4325_2326">
<rect width="90" height="90" fill="white"/>
</clipPath>
</defs>
</svg>
