<svg width="90" height="90" viewBox="0 0 90 90" fill="none" xmlns="http://www.w3.org/2000/svg">
<path d="M46.3369 43.3673C45.9595 43.0589 45.4871 42.8904 44.9998 42.8904C44.5124 42.8904 44.0401 43.0589 43.6627 43.3673C42.999 43.9104 27.4102 56.8365 27.4102 72.422C27.5119 76.99 29.4205 81.3313 32.7176 84.4945C36.0148 87.6577 40.4315 89.3847 44.9998 89.297C49.5681 89.3847 53.9848 87.6577 57.2819 84.4945C60.5791 81.3313 62.4877 76.99 62.5894 72.422C62.5894 56.8365 47.0006 43.9104 46.3369 43.3673ZM44.9998 82.9688C44.4403 82.9688 43.9038 82.7466 43.5082 82.351C43.1126 81.9554 42.8904 81.4189 42.8904 80.8595C42.8904 80.3 43.1126 79.7635 43.5082 79.3679C43.9038 78.9723 44.4403 78.7501 44.9998 78.7501C46.771 78.8377 48.5052 78.2218 49.8243 77.0365C51.1434 75.8511 51.9405 74.1925 52.042 72.422C52.042 71.8625 52.2643 71.326 52.6598 70.9304C53.0554 70.5348 53.5919 70.3126 54.1514 70.3126C54.7108 70.3126 55.2474 70.5348 55.6429 70.9304C56.0385 71.326 56.2608 71.8625 56.2608 72.422C56.1597 75.3117 54.9181 78.0437 52.8077 80.0203C50.6973 81.9969 47.8899 83.057 44.9998 82.9688Z" fill="#FFCC00"/>
<path d="M80.0363 52.7687C81.165 47.6508 81.165 42.3485 80.0363 37.2306L86.4703 31.5795C86.8367 31.2578 87.0803 30.819 87.1594 30.3378C87.2386 29.8566 87.1485 29.3629 86.9045 28.9407L79.8687 16.7624C79.6244 16.3403 79.2416 16.0157 78.7852 15.8437C78.3288 15.6718 77.827 15.663 77.3649 15.8189L69.2393 18.5655C65.3743 15.0276 60.7827 12.3771 55.786 10.7996L54.1053 2.39913C54.0096 1.92077 53.7511 1.49034 53.3738 1.18112C52.9965 0.871899 52.5237 0.702984 52.0358 0.703125H37.9641C37.4763 0.702984 37.0034 0.871899 36.6261 1.18112C36.2488 1.49034 35.9903 1.92077 35.8946 2.39913L34.2139 10.7996C29.2172 12.3771 24.6257 15.0276 20.7606 18.5655L12.635 15.8189C12.1729 15.663 11.6711 15.6717 11.2147 15.8437C10.7584 16.0157 10.3756 16.3403 10.1313 16.7624L3.0954 28.9407C2.85139 29.3629 2.7613 29.8566 2.84048 30.3378C2.91966 30.819 3.16321 31.2578 3.52965 31.5795L9.96361 37.2306C8.83493 42.3485 8.83493 47.6508 9.96361 52.7687L3.52965 58.4198C3.16323 58.7417 2.91971 59.1807 2.84053 59.662C2.76135 60.1432 2.85142 60.637 3.0954 61.0594L10.1313 73.2377C10.3752 73.6602 10.758 73.985 11.2145 74.157C11.671 74.3291 12.173 74.3376 12.635 74.1812L21.9672 71.0267C22.4971 70.8474 22.9341 70.4649 23.182 69.9634C23.43 69.4619 23.4685 68.8824 23.2892 68.3525C23.1099 67.8225 22.7274 67.3855 22.2259 67.1376C21.7244 66.8897 21.1449 66.8511 20.615 67.0304L12.9222 69.6314L7.61645 60.4468L13.7069 55.0978C14.0007 54.8399 14.2171 54.5055 14.3318 54.1318C14.4466 53.7581 14.4553 53.3599 14.3569 52.9816C12.9992 47.7467 12.9992 42.252 14.3569 37.0171C14.4553 36.6389 14.4466 36.2409 14.3318 35.8674C14.2171 35.494 14.0007 35.1598 13.7069 34.9022L7.61645 29.5525L12.9222 20.3693L20.615 22.9697C20.9853 23.0949 21.3831 23.1147 21.764 23.0271C22.1449 22.9394 22.4941 22.7477 22.7724 22.4733C26.6237 18.6793 31.3811 15.9332 36.5927 14.4958C36.9699 14.3922 37.3108 14.1858 37.5775 13.8997C37.8442 13.6135 38.0261 13.2589 38.1029 12.8753L39.6942 4.92188H50.3057L51.8971 12.8753C51.9739 13.2588 52.1558 13.6135 52.4225 13.8996C52.6891 14.1858 53.0301 14.3922 53.4073 14.4958C58.6188 15.9331 63.3763 18.6793 67.2275 22.4733C67.5059 22.7476 67.855 22.9393 68.2359 23.027C68.6169 23.1146 69.0146 23.0948 69.385 22.9697L77.0777 20.3694L82.3835 29.5526L76.293 34.9022C75.9992 35.1598 75.7829 35.494 75.6681 35.8675C75.5533 36.2409 75.5446 36.639 75.643 37.0171C77.0007 42.252 77.0007 47.7467 75.643 52.9816C75.5446 53.3599 75.5533 53.7581 75.6681 54.1318C75.7829 54.5055 75.9992 54.84 76.293 55.0978L82.3835 60.4468L77.0777 69.6314L69.385 67.0303C68.855 66.851 68.2756 66.8895 67.7741 67.1375C67.2725 67.3854 66.89 67.8224 66.7107 68.3523C66.5314 68.8823 66.57 69.4617 66.8179 69.9633C67.0658 70.4648 67.5028 70.8473 68.0328 71.0266L77.3649 74.1811C77.827 74.3372 78.3289 74.3286 78.7853 74.1566C79.2417 73.9846 79.6245 73.6599 79.8687 73.2376L86.9045 61.0593C87.1485 60.637 87.2386 60.1431 87.1594 59.6619C87.0802 59.1806 86.8367 58.7417 86.4703 58.4198L80.0363 52.7687Z" fill="#282B2D"/>
<path d="M45.0001 23.2031C41.4368 23.2023 37.9275 24.0747 34.7794 25.7441C31.6312 27.4134 28.9402 29.8288 26.9416 32.779C24.9431 35.7291 23.6979 39.1241 23.3151 42.6668C22.9324 46.2095 23.4236 49.7921 24.7459 53.101C24.8489 53.3584 25.0016 53.5929 25.1952 53.7913C25.3888 53.9896 25.6196 54.1479 25.8744 54.257C26.1291 54.3662 26.4029 54.4241 26.6801 54.4274C26.9572 54.4308 27.2323 54.3795 27.4897 54.2765C27.747 54.1735 27.9816 54.0209 28.1799 53.8273C28.3782 53.6336 28.5365 53.4029 28.6457 53.1481C28.7548 52.8933 28.8127 52.6195 28.8161 52.3423C28.8194 52.0652 28.7681 51.7901 28.6651 51.5328C27.5997 48.8642 27.2043 45.9752 27.5134 43.1185C27.8226 40.2618 28.8269 37.5243 30.4385 35.1454C32.0501 32.7665 34.22 30.8187 36.7584 29.4723C39.2968 28.1258 42.1264 27.4217 44.9998 27.4216C47.8732 27.4215 50.7029 28.1253 53.2414 29.4716C55.7799 30.8178 57.95 32.7654 59.5618 35.1442C61.1736 37.5229 62.1782 40.2603 62.4876 43.117C62.7969 45.9737 62.4018 48.8627 61.3366 51.5313C61.1286 52.0511 61.1356 52.6321 61.356 53.1467C61.5765 53.6612 61.9923 54.0671 62.512 54.2751C63.0317 54.4831 63.6128 54.4761 64.1273 54.2556C64.6419 54.0352 65.0478 53.6194 65.2558 53.0996C66.5774 49.7907 67.0681 46.2082 66.6849 42.6657C66.3017 39.1233 65.0564 35.7286 63.0578 32.7788C61.0592 29.8289 58.3682 27.4137 55.2203 25.7444C52.0723 24.0751 48.5633 23.2026 45.0001 23.2031Z" fill="#282B2D"/>
</svg>
