<svg width="70" height="70" viewBox="0 0 70 70" fill="none" xmlns="http://www.w3.org/2000/svg">
<path fill-rule="evenodd" clip-rule="evenodd" d="M35.0002 61.9791C36.2077 61.9791 37.1877 62.9591 37.1877 64.1666C37.1877 65.3741 36.2077 66.3541 35.0002 66.3541H11.6668C9.54058 66.3541 7.49891 65.5083 5.99391 64.0062C4.49183 62.5012 3.646 60.4595 3.646 58.3333V11.6666C3.646 9.54034 4.49183 7.49867 5.99391 5.99367C7.49891 4.49159 9.54058 3.64575 11.6668 3.64575H36.7093C38.0627 3.64575 39.3606 4.18242 40.3172 5.142L53.1914 18.0162C54.151 18.9728 54.6877 20.2708 54.6877 21.6241V32.0833C54.6877 33.2908 53.7077 34.2708 52.5002 34.2708C51.2927 34.2708 50.3127 33.2908 50.3127 32.0833V21.6241C50.3127 21.4316 50.2368 21.2449 50.0997 21.1078L37.2256 8.23367C37.0885 8.09659 36.9018 8.02075 36.7093 8.02075H11.6668C10.6985 8.02075 9.77391 8.40575 9.0885 9.08825C8.406 9.77367 8.021 10.6983 8.021 11.6666V58.3333C8.021 59.3016 8.406 60.2262 9.0885 60.9116C9.77391 61.5941 10.6985 61.9791 11.6668 61.9791H35.0002Z" fill="#282B2D"/>
<path fill-rule="evenodd" clip-rule="evenodd" d="M35.7295 7.2915C35.7295 6.084 36.7095 5.104 37.917 5.104C39.1245 5.104 40.1045 6.084 40.1045 7.2915V17.4998C40.1045 17.9023 40.4312 18.229 40.8337 18.229H51.042C52.2495 18.229 53.2295 19.209 53.2295 20.4165C53.2295 21.624 52.2495 22.604 51.042 22.604H40.8337C38.0132 22.604 35.7295 20.3203 35.7295 17.4998V7.2915Z" fill="#282B2D"/>
<path fill-rule="evenodd" clip-rule="evenodd" d="M17.5 32.8125C16.2925 32.8125 15.3125 31.8325 15.3125 30.625C15.3125 29.4175 16.2925 28.4375 17.5 28.4375H40.8333C42.0408 28.4375 43.0208 29.4175 43.0208 30.625C43.0208 31.8325 42.0408 32.8125 40.8333 32.8125H17.5Z" fill="#282B2D"/>
<path fill-rule="evenodd" clip-rule="evenodd" d="M17.5 43.0208C16.2925 43.0208 15.3125 42.0408 15.3125 40.8333C15.3125 39.6258 16.2925 38.6458 17.5 38.6458H30.625C31.8325 38.6458 32.8125 39.6258 32.8125 40.8333C32.8125 42.0408 31.8325 43.0208 30.625 43.0208H17.5Z" fill="#282B2D"/>
<path fill-rule="evenodd" clip-rule="evenodd" d="M17.5 53.229C16.2925 53.229 15.3125 52.249 15.3125 51.0415C15.3125 49.834 16.2925 48.854 17.5 48.854H30.625C31.8325 48.854 32.8125 49.834 32.8125 51.0415C32.8125 52.249 31.8325 53.229 30.625 53.229H17.5Z" fill="#282B2D"/>
<path d="M52.0947 55.7812C54.511 55.7812 56.4697 53.8225 56.4697 51.4062C56.4697 48.99 54.511 47.0312 52.0947 47.0312C49.6785 47.0312 47.7197 48.99 47.7197 51.4062C47.7197 53.8225 49.6785 55.7812 52.0947 55.7812Z" fill="#FFCC00"/>
<path fill-rule="evenodd" clip-rule="evenodd" d="M56.5718 38.0449C56.5718 38.0449 57.6072 40.5387 57.6043 40.5387C57.998 40.737 58.3801 40.9587 58.7505 41.1978L61.428 40.8478C62.1514 40.7545 62.8776 41.0287 63.3589 41.5799C64.6305 43.0383 65.6076 44.7328 66.2376 46.5645C66.4739 47.2558 66.3485 48.0228 65.9022 48.6033C65.9022 48.6033 64.263 50.747 64.263 50.7441C64.2864 51.1845 64.2864 51.6278 64.263 52.0653L65.9022 54.2091C66.3485 54.7895 66.4739 55.5566 66.2376 56.2478C65.6076 58.0795 64.6305 59.7741 63.3589 61.2324C62.8776 61.7837 62.1514 62.0578 61.428 61.9645C61.428 61.9645 58.7505 61.6145 58.7535 61.6116C58.383 61.8537 57.998 62.0753 57.6072 62.2737L56.5718 64.7674C56.2918 65.4441 55.691 65.9341 54.9735 66.0741C53.0718 66.4474 51.1176 66.4474 49.216 66.0741C48.4985 65.9341 47.8976 65.4441 47.6176 64.7674C47.6176 64.7674 46.5822 62.2737 46.5851 62.2737C46.1914 62.0753 45.8064 61.8537 45.4389 61.6145L42.7614 61.9645C42.0351 62.0578 41.3118 61.7837 40.8305 61.2324C39.556 59.7741 38.5789 58.0795 37.9518 56.2478C37.7155 55.5566 37.841 54.7895 38.2843 54.2091C38.2843 54.2091 39.9264 52.0653 39.9264 52.0683C39.903 51.6278 39.903 51.1845 39.9264 50.747L38.2843 48.6033C37.841 48.0228 37.7155 47.2558 37.9518 46.5645C38.5789 44.7328 39.556 43.0383 40.8305 41.5799C41.3118 41.0287 42.0351 40.7545 42.7614 40.8478C42.7614 40.8478 45.4389 41.1978 45.436 41.2008C45.8064 40.9587 46.1885 40.737 46.5822 40.5387L47.6176 38.0449C47.8976 37.3683 48.4985 36.8783 49.216 36.7383C51.1176 36.3649 53.0718 36.3649 54.9735 36.7383C55.691 36.8783 56.2918 37.3683 56.5718 38.0449ZM53.0076 40.8741C52.401 40.8216 51.7885 40.8187 51.1818 40.8741L50.2951 43.0062C50.0735 43.5399 49.6476 43.9658 49.111 44.1874C48.4751 44.4499 47.8801 44.7941 47.3347 45.2141C46.8768 45.567 46.2935 45.7216 45.7189 45.6487L43.4293 45.3483C43.0793 45.8499 42.773 46.3778 42.5164 46.932L43.9193 48.7637C44.2722 49.2245 44.4268 49.8078 44.351 50.3824C44.2605 51.062 44.2605 51.7503 44.351 52.4299C44.4268 53.0045 44.2722 53.5878 43.9193 54.0487C43.9193 54.0487 42.5164 55.8803 42.5164 55.8833C42.773 56.4345 43.0793 56.9653 43.4293 57.4641L45.7189 57.1637C46.2935 57.0908 46.8768 57.2453 47.3347 57.5983C47.8801 58.0183 48.4751 58.3624 49.111 58.6249C49.6476 58.8466 50.0735 59.2724 50.2951 59.8062L51.1818 61.9383C51.7885 61.9937 52.401 61.9937 53.0076 61.9383L53.8943 59.8062C54.116 59.2724 54.5418 58.8466 55.0785 58.6249C55.7114 58.3624 56.3093 58.0183 56.8547 57.5983C57.3126 57.2453 57.896 57.0908 58.4705 57.1637L60.7601 57.4641C61.1101 56.9624 61.4164 56.4345 61.673 55.8803L60.2701 54.0487C59.9172 53.5878 59.7626 53.0045 59.8385 52.4299C59.926 51.7503 59.926 51.062 59.8385 50.3824C59.7626 49.8078 59.9172 49.2245 60.2701 48.7637C60.2701 48.7637 61.673 46.932 61.673 46.9291C61.4135 46.3778 61.1101 45.847 60.7601 45.3483L58.4705 45.6487C57.896 45.7216 57.3126 45.567 56.8547 45.2141C56.3093 44.7941 55.7114 44.4499 55.0785 44.1874C54.5418 43.9658 54.116 43.5399 53.8943 43.0062L53.0076 40.8741Z" fill="#FFCC00"/>
</svg>
