<svg width="70" height="70" viewBox="0 0 70 70" fill="none" xmlns="http://www.w3.org/2000/svg">
<path d="M37.1875 56.875H19.6875C16.0694 56.875 13.125 53.9306 13.125 50.3125V13.125C13.125 9.50688 16.0694 6.5625 19.6875 6.5625H45.9375C49.5556 6.5625 52.5 9.50688 52.5 13.125V24.1938C52.5 25.4013 53.4778 26.3813 54.6875 26.3813C55.8972 26.3813 56.875 25.4013 56.875 24.1938V13.125C56.875 7.09406 51.9684 2.1875 45.9375 2.1875H19.6875C13.6566 2.1875 8.75 7.09406 8.75 13.125V50.3125C8.75 56.3434 13.6566 61.25 19.6875 61.25H37.1875C38.3972 61.25 39.375 60.27 39.375 59.0625C39.375 57.855 38.3972 56.875 37.1875 56.875Z" fill="#282B2D"/>
<path d="M21.875 19.6875H37.1875C38.3972 19.6875 39.375 18.7075 39.375 17.5C39.375 16.2925 38.3972 15.3125 37.1875 15.3125H21.875C20.6653 15.3125 19.6875 16.2925 19.6875 17.5C19.6875 18.7075 20.6653 19.6875 21.875 19.6875Z" fill="#282B2D"/>
<path d="M42.35 28.4375C42.35 27.23 41.3722 26.25 40.1625 26.25H21.875C20.6653 26.25 19.6875 27.23 19.6875 28.4375C19.6875 29.645 20.6653 30.625 21.875 30.625H40.1625C41.3722 30.625 42.35 29.645 42.35 28.4375Z" fill="#282B2D"/>
<path d="M36.1375 37.1875C36.1375 35.98 35.1597 35 33.95 35H21.875C20.6653 35 19.6875 35.98 19.6875 37.1875C19.6875 38.395 20.6653 39.375 21.875 39.375H33.95C35.1597 39.375 36.1375 38.395 36.1375 37.1875Z" fill="#282B2D"/>
<path d="M21.875 43.75C20.6653 43.75 19.6875 44.73 19.6875 45.9375C19.6875 47.145 20.6653 48.125 21.875 48.125H32.9438C34.1534 48.125 35.1312 47.145 35.1312 45.9375C35.1312 44.73 34.1534 43.75 32.9438 43.75H21.875Z" fill="#282B2D"/>
<path d="M65.625 43.75C65.625 36.5116 59.7384 30.625 52.5 30.625C45.2616 30.625 39.375 36.5116 39.375 43.75C39.375 47.6241 41.0725 51.1 43.75 53.5062V64.5247C43.75 65.7366 44.4172 66.8478 45.4869 67.4209C46.5631 67.9984 47.8494 67.935 48.8644 67.2591L52.5 64.8178L56.1444 67.2634C56.6912 67.6287 57.3212 67.8103 57.9556 67.8103C58.4872 67.8103 59.0231 67.6812 59.5131 67.4188C60.5828 66.8456 61.25 65.7344 61.25 64.5225V53.5041C63.9275 51.1 65.625 47.6262 65.625 43.75ZM56.875 62.4837L53.7206 60.3663C52.9813 59.8697 52.0209 59.8697 51.2816 60.3663L48.1272 62.4837V56.1094C49.4987 56.5972 50.9666 56.875 52.5022 56.875C54.0378 56.875 55.5056 56.595 56.8772 56.1094L56.875 62.4837ZM52.5 52.5C47.6744 52.5 43.75 48.5756 43.75 43.75C43.75 38.9244 47.6744 35 52.5 35C57.3256 35 61.25 38.9244 61.25 43.75C61.25 48.5756 57.3256 52.5 52.5 52.5Z" fill="#FFCC00"/>
</svg>
