<svg width="78" height="78" viewBox="0 0 78 78" fill="none" xmlns="http://www.w3.org/2000/svg">
<path d="M71.9119 65.8649L49.2855 31.1412V12.6743C50.757 12.3642 52.062 11.5213 52.9498 10.3076C53.8376 9.0939 54.2457 7.59494 54.0956 6.09867C53.9456 4.60239 53.2479 3.21434 52.1367 2.20114C51.0255 1.18794 49.5791 0.621051 48.0754 0.609375H29.9232C28.4194 0.621051 26.973 1.18794 25.8618 2.20114C24.7506 3.21434 24.053 4.60239 23.9029 6.09867C23.7528 7.59494 24.1609 9.0939 25.0487 10.3076C25.9366 11.5213 27.2416 12.3642 28.713 12.6743V31.1412L6.08661 65.8649C5.35675 66.9851 4.94154 68.281 4.88448 69.6168C4.82742 70.9526 5.13061 72.2792 5.76228 73.4576C6.39396 74.636 7.33088 75.6228 8.47492 76.3148C9.61896 77.0067 10.928 77.3783 12.265 77.3906H65.7336C67.0706 77.3786 68.3799 77.0072 69.5241 76.3153C70.6683 75.6235 71.6054 74.6366 72.2371 73.4581C72.8689 72.2796 73.172 70.9528 73.1148 69.6169C73.0576 68.281 72.6421 66.9851 71.9119 65.8649ZM65.7336 73.7344H12.265C11.5849 73.7281 10.919 73.5391 10.3371 73.1871C9.75512 72.8351 9.2785 72.3332 8.95712 71.7338C8.63574 71.1344 8.48143 70.4596 8.51033 69.7802C8.53924 69.1007 8.75031 68.4414 9.12143 67.8715L32.0457 32.6902C32.2402 32.392 32.3437 32.0436 32.3435 31.6875V10.9688C32.3444 10.7295 32.2981 10.4924 32.2073 10.2711C32.1166 10.0497 31.9831 9.84843 31.8146 9.67867C31.646 9.5089 31.4456 9.37401 31.2249 9.28169C31.0042 9.18937 30.7675 9.14144 30.5283 9.14062H29.9232C29.2797 9.13608 28.6641 8.87726 28.2107 8.42064C27.7573 7.96401 27.5029 7.34662 27.5029 6.70312C27.5029 6.05963 27.7573 5.44224 28.2107 4.98561C28.6641 4.52899 29.2797 4.27018 29.9232 4.26562H48.0754C48.7188 4.27018 49.3344 4.52899 49.7878 4.98561C50.2412 5.44224 50.4957 6.05963 50.4957 6.70312C50.4957 7.34662 50.2412 7.96401 49.7878 8.42064C49.3344 8.87726 48.7188 9.13608 48.0754 9.14062H47.4703C46.9872 9.14237 46.5245 9.33594 46.1841 9.67878C45.8437 10.0216 45.6534 10.4856 45.6551 10.9688V31.6875C45.6552 32.0435 45.7586 32.3919 45.9529 32.6902L68.8771 67.8715C69.2484 68.4414 69.4596 69.1007 69.4886 69.7802C69.5176 70.4598 69.3633 71.1346 69.0419 71.7341C68.7205 72.3335 68.2438 72.8355 67.6618 73.1874C67.0797 73.5393 66.4137 73.7283 65.7336 73.7344Z" fill="#282B2D"/>
<path d="M41.4199 9.14062H36.5781C36.0933 9.14062 35.6283 9.33323 35.2854 9.67607C34.9426 10.0189 34.75 10.4839 34.75 10.9688C34.75 11.4536 34.9426 11.9186 35.2854 12.2614C35.6283 12.6043 36.0933 12.7969 36.5781 12.7969H41.4199C41.9048 12.7969 42.3698 12.6043 42.7126 12.2614C43.0555 11.9186 43.2481 11.4536 43.2481 10.9688C43.2481 10.4839 43.0555 10.0189 42.7126 9.67607C42.3698 9.33323 41.9048 9.14062 41.4199 9.14062Z" fill="#282B2D"/>
<path d="M58.6928 64.8377L47.2573 46.5565C47.0338 46.1969 46.6912 45.9271 46.2892 45.7942C45.8872 45.6613 45.4513 45.6737 45.0575 45.8293C43.4571 46.4586 41.6863 46.5045 40.0555 45.959L39.0909 45.6353C36.6539 44.8178 34.0067 44.8865 31.6154 45.8293C31.254 45.9722 30.9479 46.227 30.7418 46.5565L19.3063 64.8377C19.133 65.1137 19.0366 65.4309 19.0269 65.7565C19.0173 66.0822 19.0947 66.4046 19.2513 66.6903C19.4079 66.976 19.638 67.2147 19.9177 67.3818C20.1974 67.5489 20.5167 67.6382 20.8425 67.6406H57.1561C57.4819 67.6382 57.8012 67.5489 58.0809 67.3819C58.3607 67.2148 58.5907 66.9761 58.7474 66.6904C58.904 66.4047 58.9815 66.0823 58.9719 65.7566C58.9623 65.4309 58.866 65.1137 58.6928 64.8377Z" fill="#FFCC00"/>
</svg>
