<svg width="156" height="115" viewBox="0 0 156 115" fill="none" xmlns="http://www.w3.org/2000/svg">
<path d="M13.6868 27.8072C7.21407 43.8888 28.1263 59.8651 52.1529 64.544C76.1795 69.2229 80.7043 94.2952 103.113 103.314C154.607 124.041 147.019 56.8259 114.797 38.7214C82.5747 20.617 25.9406 -2.63771 13.6868 27.8072Z" fill="#F5F5F5"/>
<path d="M79.6343 55.0044C79.1731 54.6274 78.5958 54.4215 78.0001 54.4215C77.4045 54.4215 76.8272 54.6274 76.3659 55.0044C75.5547 55.6682 56.5017 71.4668 56.5017 90.5157C56.6261 96.0988 58.9588 101.405 62.9886 105.271C67.0185 109.137 72.4167 111.248 78.0001 111.141C83.5836 111.248 88.9818 109.137 93.0117 105.271C97.0415 101.405 99.3742 96.0988 99.4986 90.5157C99.4986 71.4668 80.4456 55.6682 79.6343 55.0044ZM78.0001 103.406C77.3164 103.406 76.6606 103.135 76.1771 102.651C75.6936 102.168 75.422 101.512 75.422 100.828C75.422 100.144 75.6936 99.4887 76.1771 99.0052C76.6606 98.5217 77.3164 98.25 78.0001 98.25C80.165 98.3572 82.2845 97.6044 83.8967 96.1556C85.509 94.7069 86.4832 92.6796 86.6073 90.5157C86.6073 89.8319 86.8789 89.1762 87.3624 88.6927C87.8459 88.2092 88.5017 87.9375 89.1854 87.9375C89.8692 87.9375 90.525 88.2092 91.0085 88.6927C91.4919 89.1762 91.7636 89.8319 91.7636 90.5157C91.64 94.0475 90.1226 97.3867 87.5432 99.8025C84.9638 102.218 81.5325 103.514 78.0001 103.406Z" fill="#DB001B"/>
<path d="M120.822 66.4951C122.202 60.2399 122.202 53.7593 120.822 47.5041L128.686 40.5972C129.134 40.204 129.432 39.6676 129.528 39.0795C129.625 38.4915 129.515 37.888 129.217 37.372L120.617 22.4874C120.319 21.9715 119.851 21.5748 119.293 21.3646C118.735 21.1544 118.122 21.1437 117.557 21.3343L107.626 24.6912C102.902 20.3671 97.2901 17.1276 91.183 15.1995L89.1289 4.93227C89.0119 4.3476 88.6959 3.82153 88.2348 3.44359C87.7736 3.06565 87.1957 2.8592 86.5994 2.85938H69.4007C68.8044 2.8592 68.2266 3.06565 67.7654 3.44359C67.3042 3.82153 66.9882 4.3476 66.8713 4.93227L64.8172 15.1995C58.7101 17.1276 53.0982 20.3671 48.3742 24.6912L38.4429 21.3342C37.8781 21.1436 37.2648 21.1544 36.707 21.3645C36.1492 21.5747 35.6814 21.9714 35.3828 22.4873L26.7834 37.372C26.4852 37.888 26.375 38.4915 26.4718 39.0795C26.5686 39.6676 26.8663 40.204 27.3141 40.5972L35.1779 47.5041C33.7984 53.7593 33.7984 60.2399 35.1779 66.4951L27.3141 73.402C26.8663 73.7955 26.5687 74.332 26.4719 74.9202C26.3751 75.5084 26.4852 76.1119 26.7834 76.6281L35.3828 91.5128C35.6809 92.0291 36.1488 92.4262 36.7067 92.6364C37.2646 92.8466 37.8782 92.857 38.4429 92.6659L49.8489 88.8104C50.4966 88.5913 51.0307 88.1238 51.3337 87.5108C51.6367 86.8979 51.6838 86.1896 51.4647 85.5419C51.2455 84.8942 50.778 84.3601 50.1651 84.0571C49.5521 83.7541 48.8439 83.7069 48.1962 83.9261L38.794 87.105L32.3091 75.8794L39.753 69.3418C40.1121 69.0266 40.3765 68.6178 40.5168 68.1611C40.6571 67.7044 40.6677 67.2177 40.5474 66.7552C38.8881 60.357 38.8881 53.6413 40.5474 47.2431C40.6677 46.7809 40.6571 46.2945 40.5168 45.838C40.3765 45.3815 40.1121 44.9731 39.753 44.6582L32.3091 38.1198L38.794 26.8959L48.1962 30.0741C48.6488 30.227 49.135 30.2513 49.6006 30.1442C50.0662 30.0371 50.4929 29.8027 50.8331 29.4673C55.5402 24.8303 61.3548 21.4739 67.7245 19.7171C68.1855 19.5905 68.6022 19.3382 68.9282 18.9885C69.2541 18.6388 69.4764 18.2053 69.5703 17.7365L71.5152 8.01562H84.4849L86.4299 17.7365C86.5237 18.2052 86.7461 18.6387 87.072 18.9884C87.3979 19.3382 87.8147 19.5904 88.2757 19.7171C94.6454 21.4738 100.46 24.8302 105.167 29.4673C105.507 29.8027 105.934 30.0369 106.4 30.1441C106.865 30.2512 107.351 30.227 107.804 30.0741L117.206 26.8959L123.691 38.1198L116.247 44.6583C115.888 44.9731 115.624 45.3816 115.483 45.838C115.343 46.2945 115.332 46.781 115.453 47.2431C117.112 53.6413 117.112 60.3571 115.453 66.7553C115.332 67.2177 115.343 67.7044 115.483 68.1611C115.624 68.6179 115.888 69.0266 116.247 69.3418L123.691 75.8794L117.206 87.105L107.804 83.9259C107.156 83.7068 106.448 83.7539 105.835 84.0569C105.222 84.3599 104.755 84.8941 104.535 85.5417C104.316 86.1895 104.363 86.8977 104.666 87.5107C104.969 88.1236 105.504 88.5911 106.151 88.8103L117.557 92.6658C118.122 92.8566 118.735 92.846 119.293 92.6358C119.851 92.4256 120.319 92.0288 120.617 91.5127L129.217 76.628C129.515 76.1118 129.625 75.5083 129.528 74.9201C129.431 74.3319 129.134 73.7954 128.686 73.4019L120.822 66.4951Z" fill="#282B2D"/>
<path d="M78.0002 30.3594C73.6449 30.3584 69.3558 31.4247 65.5081 33.465C61.6604 35.5053 58.3713 38.4575 55.9286 42.0632C53.4859 45.6689 51.9641 49.8183 51.4963 54.1483C51.0284 58.4783 51.6289 62.857 53.245 66.9013C53.3709 67.2158 53.5574 67.5025 53.7941 67.7449C54.0307 67.9873 54.3128 68.1807 54.6242 68.3141C54.9356 68.4475 55.2702 68.5183 55.609 68.5224C55.9477 68.5265 56.284 68.4638 56.5985 68.338C56.913 68.2121 57.1997 68.0255 57.4421 67.7889C57.6845 67.5522 57.8779 67.2702 58.0113 66.9588C58.1448 66.6474 58.2155 66.3127 58.2196 65.974C58.2237 65.6352 58.161 65.299 58.0352 64.9845C56.733 61.7229 56.2497 58.1919 56.6275 54.7004C57.0053 51.2088 58.2328 47.863 60.2026 44.9555C62.1723 42.048 64.8244 39.6673 67.9269 38.0217C71.0294 36.376 74.4878 35.5155 77.9997 35.5153C81.5117 35.5152 84.9702 36.3754 88.0728 38.0208C91.1754 39.6662 93.8277 42.0466 95.7977 44.954C97.7678 47.8613 98.9955 51.207 99.3736 54.6985C99.7518 58.1901 99.2688 61.721 97.9669 64.9827C97.7127 65.618 97.7212 66.3281 97.9907 66.957C98.2601 67.5859 98.7683 68.0821 99.4035 68.3362C100.039 68.5904 100.749 68.5819 101.378 68.3124C102.007 68.043 102.503 67.5348 102.757 66.8996C104.372 62.8553 104.972 58.4767 104.504 54.147C104.035 49.8173 102.513 45.6683 100.071 42.0629C97.6278 38.4576 94.3389 35.5056 90.4914 33.4654C86.6439 31.4251 82.3551 30.3587 78.0002 30.3594Z" fill="#282B2D"/>
</svg>
