<svg width="156" height="115" viewBox="0 0 156 115" fill="none" xmlns="http://www.w3.org/2000/svg">
<path d="M13.6866 86.6657C7.21395 70.5841 28.1262 54.6078 52.1528 49.9289C76.1793 45.25 80.7042 20.1777 103.113 11.1584C154.607 -9.56762 147.019 57.647 114.797 75.7515C82.5746 93.8559 25.9404 117.111 13.6866 86.6657Z" fill="#F5F5F5"/>
<path d="M68.9134 72.4688H61.8958C62.4432 75.8586 64.0446 78.9899 66.4727 81.418C68.9007 83.846 72.032 85.4475 75.4219 85.9949V78.9772C73.8735 78.5345 72.4634 77.7046 71.3247 76.5659C70.186 75.4272 69.3561 74.0171 68.9134 72.4688Z" fill="#FFCC00"/>
<path d="M78 74.1875C80.3731 74.1875 82.2969 72.2637 82.2969 69.8906C82.2969 67.5175 80.3731 65.5938 78 65.5938C75.6269 65.5938 73.7031 67.5175 73.7031 69.8906C73.7031 72.2637 75.6269 74.1875 78 74.1875Z" fill="#FFCC00"/>
<path d="M87.0865 67.3125H94.1043C93.5568 63.9226 91.9554 60.7914 89.5273 58.3633C87.0993 55.9352 83.968 54.3338 80.5781 53.7864V60.8042C82.1264 61.2469 83.5364 62.0768 84.6751 63.2155C85.8138 64.3542 86.6437 65.7642 87.0865 67.3125Z" fill="#FFCC00"/>
<path d="M75.4219 60.804V53.7864C72.032 54.3338 68.9007 55.9352 66.4727 58.3633C64.0446 60.7913 62.4432 63.9226 61.8958 67.3125H68.9134C69.3561 65.7641 70.186 64.3541 71.3247 63.2153C72.4635 62.0766 73.8735 61.2467 75.4219 60.804Z" fill="#FFCC00"/>
<path d="M80.5781 78.9771V85.9949C83.968 85.4475 87.0993 83.846 89.5273 81.418C91.9554 78.9899 93.5568 75.8586 94.1043 72.4688H87.0865C86.6437 74.017 85.8138 75.427 84.6751 76.5657C83.5364 77.7044 82.1264 78.5343 80.5781 78.9771Z" fill="#FFCC00"/>
<path d="M78 41.5313C72.3911 41.5312 66.9081 43.1945 62.2444 46.3107C57.5807 49.4268 53.9458 53.856 51.7994 59.038C49.6529 64.22 49.0913 69.9221 50.1856 75.4233C51.2798 80.9244 53.9808 85.9776 57.9469 89.9437C61.913 93.9099 66.9662 96.6108 72.4674 97.7051C77.9686 98.7993 83.6707 98.2377 88.8527 96.0913C94.0347 93.9448 98.4638 90.3099 101.58 85.6463C104.696 80.9826 106.359 75.4996 106.359 69.8906C106.351 62.3719 103.36 55.1636 98.0436 49.8471C92.727 44.5305 85.5187 41.5399 78 41.5313ZM78 91.375C73.7508 91.375 69.597 90.115 66.0639 87.7542C62.5308 85.3935 59.7771 82.0381 58.151 78.1123C56.5249 74.1866 56.0995 69.8668 56.9285 65.6992C57.7574 61.5317 59.8036 57.7035 62.8083 54.6989C65.8129 51.6942 69.6411 49.648 73.8086 48.8191C77.9762 47.9901 82.296 48.4155 86.2217 50.0417C90.1475 51.6678 93.5029 54.4215 95.8636 57.9545C98.2244 61.4876 99.4844 65.6414 99.4844 69.8906C99.478 75.5867 97.2124 81.0476 93.1847 85.0753C89.157 89.103 83.6961 91.3686 78 91.375Z" fill="#FFCC00"/>
<path d="M124.406 40.6719C122.356 40.6741 120.39 41.4897 118.94 42.9397C117.49 44.3897 116.674 46.3557 116.672 48.4062H107.219C106.535 48.4062 105.879 48.6779 105.396 49.1614C104.912 49.6449 104.641 50.3006 104.641 50.9844C104.641 51.6681 104.912 52.3239 105.396 52.8074C105.879 53.2909 106.535 53.5625 107.219 53.5625H116.672V86.2188H107.219C106.535 86.2188 105.879 86.4904 105.396 86.9739C104.912 87.4574 104.641 88.1131 104.641 88.7969C104.641 89.4806 104.912 90.1364 105.396 90.6199C105.879 91.1034 106.535 91.375 107.219 91.375H116.672C116.672 93.4263 117.487 95.3936 118.937 96.844C120.388 98.2945 122.355 99.1094 124.406 99.1094C126.458 99.1094 128.425 98.2945 129.875 96.844C131.326 95.3936 132.141 93.4263 132.141 91.375V48.4062C132.138 46.3557 131.323 44.3897 129.873 42.9397C128.423 41.4897 126.457 40.6741 124.406 40.6719ZM126.984 91.375C126.984 92.0588 126.713 92.7145 126.229 93.198C125.746 93.6815 125.09 93.9531 124.406 93.9531C123.722 93.9531 123.067 93.6815 122.583 93.198C122.1 92.7145 121.828 92.0588 121.828 91.375V48.4062C121.828 47.7225 122.1 47.0667 122.583 46.5832C123.067 46.0997 123.722 45.8281 124.406 45.8281C125.09 45.8281 125.746 46.0997 126.229 46.5832C126.713 47.0667 126.984 47.7225 126.984 48.4062V91.375Z" fill="#282B2D"/>
<path d="M48.7812 53.5625C49.465 53.5625 50.1208 53.2909 50.6043 52.8074C51.0878 52.3239 51.3594 51.6681 51.3594 50.9844C51.3594 50.3006 51.0878 49.6449 50.6043 49.1614C50.1208 48.6779 49.465 48.4062 48.7812 48.4062H39.3281C39.3281 46.355 38.5133 44.3877 37.0628 42.9372C35.6123 41.4867 33.645 40.6719 31.5938 40.6719C29.5425 40.6719 27.5752 41.4867 26.1247 42.9372C24.6742 44.3877 23.8594 46.355 23.8594 48.4062V91.375C23.8594 93.4263 24.6742 95.3936 26.1247 96.844C27.5752 98.2945 29.5425 99.1094 31.5938 99.1094C33.645 99.1094 35.6123 98.2945 37.0628 96.844C38.5133 95.3936 39.3281 93.4263 39.3281 91.375H48.7812C49.465 91.375 50.1208 91.1034 50.6043 90.6199C51.0878 90.1364 51.3594 89.4806 51.3594 88.7969C51.3594 88.1131 51.0878 87.4574 50.6043 86.9739C50.1208 86.4904 49.465 86.2188 48.7812 86.2188H39.3281V53.5625H48.7812ZM34.1719 91.375C34.1719 92.0588 33.9003 92.7145 33.4168 93.198C32.9333 93.6815 32.2775 93.9531 31.5938 93.9531C30.91 93.9531 30.2542 93.6815 29.7707 93.198C29.2872 92.7145 29.0156 92.0588 29.0156 91.375V48.4062C29.0156 47.7225 29.2872 47.0667 29.7707 46.5832C30.2542 46.0997 30.91 45.8281 31.5938 45.8281C32.2775 45.8281 32.9333 46.0997 33.4168 46.5832C33.9003 47.0667 34.1719 47.7225 34.1719 48.4062V91.375Z" fill="#282B2D"/>
<path d="M107.219 22.625C107.217 20.5744 106.401 18.6084 104.951 17.1584C103.501 15.7084 101.535 14.8929 99.4844 14.8906H56.5156C54.4643 14.8906 52.4971 15.7055 51.0466 17.156C49.5961 18.6064 48.7812 20.5737 48.7812 22.625C48.7812 24.6763 49.5961 26.6436 51.0466 28.094C52.4971 29.5445 54.4643 30.3594 56.5156 30.3594V39.8125C56.5156 40.4963 56.7872 41.152 57.2707 41.6355C57.7542 42.119 58.41 42.3906 59.0938 42.3906C59.7775 42.3906 60.4333 42.119 60.9168 41.6355C61.4003 41.152 61.6719 40.4963 61.6719 39.8125V30.3594H94.3281V39.8125C94.3281 40.4963 94.5997 41.152 95.0832 41.6355C95.5667 42.119 96.2225 42.3906 96.9062 42.3906C97.59 42.3906 98.2458 42.119 98.7293 41.6355C99.2128 41.152 99.4844 40.4963 99.4844 39.8125V30.3594C101.535 30.3571 103.501 29.5416 104.951 28.0916C106.401 26.6416 107.217 24.6756 107.219 22.625ZM99.4844 25.2031H56.5156C55.8319 25.2031 55.1761 24.9315 54.6926 24.448C54.2091 23.9645 53.9375 23.3088 53.9375 22.625C53.9375 21.9412 54.2091 21.2855 54.6926 20.802C55.1761 20.3185 55.8319 20.0469 56.5156 20.0469H99.4844C100.168 20.0469 100.824 20.3185 101.307 20.802C101.791 21.2855 102.062 21.9412 102.062 22.625C102.062 23.3088 101.791 23.9645 101.307 24.448C100.824 24.9315 100.168 25.2031 99.4844 25.2031Z" fill="#282B2D"/>
</svg>
