<svg width="156" height="115" viewBox="0 0 156 115" fill="none" xmlns="http://www.w3.org/2000/svg">
<path d="M13.6868 86.6657C7.21407 70.5841 28.1263 54.6078 52.1529 49.9289C76.1795 45.25 80.7043 20.1777 103.113 11.1584C154.607 -9.56762 147.019 57.647 114.797 75.7515C82.5747 93.8559 25.9406 117.111 13.6868 86.6657Z" fill="#F5F5F5"/>
<path d="M79.8178 67.4971L74.3753 65.3201C74.1657 65.2356 73.9975 65.0722 73.9069 64.8652C73.8162 64.6581 73.8102 64.4238 73.8903 64.2123L81.2663 45.0342C81.4757 44.4831 81.4901 43.877 81.3071 43.3166C81.1241 42.7562 80.7547 42.2754 80.2603 41.9543C79.766 41.6331 79.1766 41.4909 78.5902 41.5513C78.0038 41.6118 77.4558 41.8712 77.0374 42.2865L51.2561 68.0678C50.9547 68.3695 50.7328 68.7413 50.6103 69.1498C50.4878 69.5584 50.4686 69.9909 50.5544 70.4087C50.6401 70.8265 50.8281 71.2165 51.1016 71.5438C51.3751 71.8711 51.7255 72.1255 52.1214 72.2841L57.5638 74.4611C57.7734 74.5456 57.9416 74.709 58.0323 74.916C58.1229 75.1231 58.1289 75.3574 58.0489 75.5689L50.6729 94.747C50.4635 95.298 50.4492 95.9041 50.6323 96.4644C50.8153 97.0247 51.1847 97.5055 51.679 97.8266C52.1733 98.1477 52.7627 98.29 53.349 98.2296C53.9353 98.1692 54.4833 97.9098 54.9018 97.4947L80.683 71.7134C80.9845 71.4117 81.2064 71.0399 81.3288 70.6313C81.4513 70.2228 81.4705 69.7903 81.3848 69.3725C81.299 68.9547 81.111 68.5646 80.8375 68.2374C80.5641 67.9101 80.2137 67.6557 79.8178 67.4971Z" fill="#FFCC00"/>
<path d="M128.703 54.4219H122.4L119.218 34.2551C119.123 33.6483 118.814 33.0956 118.347 32.6965C117.88 32.2974 117.286 32.0781 116.672 32.0781H108.078C107.463 32.078 106.867 32.2983 106.4 32.6992C105.933 33.1 105.624 33.6549 105.531 34.2635L102.429 54.4219H96.3009C95.6478 47.3662 95.2888 40.2836 95.224 33.1739C96.2401 32.6851 97.098 31.92 97.6995 30.9663C98.301 30.0126 98.6219 28.9088 98.6255 27.7812V22.625C98.6236 21.0302 97.9892 19.5012 96.8614 18.3735C95.7337 17.2457 94.2048 16.6113 92.6099 16.6094H39.3294C37.7346 16.6113 36.2056 17.2457 35.0779 18.3735C33.9502 19.5012 33.3158 21.0302 33.3139 22.625V27.7812C33.3174 28.9089 33.6384 30.0127 34.24 30.9665C34.8416 31.9202 35.6996 32.6853 36.7158 33.1742C36.4101 58.4995 32.4066 83.6443 24.8319 107.812C24.7151 108.198 24.6901 108.605 24.7589 109.001C24.8277 109.398 24.9884 109.773 25.2281 110.097C25.4678 110.42 25.7798 110.683 26.1393 110.864C26.4988 111.046 26.8958 111.14 27.2984 111.141H128.703C129.387 111.141 130.043 110.869 130.526 110.385C131.01 109.902 131.281 109.246 131.281 108.562V57C131.281 56.3162 131.01 55.6605 130.526 55.177C130.043 54.6935 129.387 54.4219 128.703 54.4219ZM110.291 37.2344H114.469L117.181 54.4219H107.646L110.291 37.2344ZM126.125 59.5781V67.3125H97.8033C97.4303 64.7397 97.0953 62.1616 96.7983 59.5781H126.125ZM38.4701 22.625C38.4704 22.3972 38.561 22.1788 38.7221 22.0177C38.8832 21.8566 39.1016 21.7659 39.3294 21.7656H92.6099C92.8378 21.7659 93.0562 21.8566 93.2173 22.0177C93.3784 22.1788 93.469 22.3972 93.4693 22.625V27.7812C93.469 28.0091 93.3784 28.2275 93.2173 28.3886C93.0562 28.5497 92.8378 28.6403 92.6099 28.6406H39.3294C39.1016 28.6403 38.8832 28.5497 38.7221 28.3886C38.561 28.2275 38.4704 28.0091 38.4701 27.7812V22.625ZM30.7778 105.984L30.7962 105.924C37.9157 82.5337 41.6528 58.2454 41.8941 33.7969H90.0444C90.2863 58.2566 94.0268 82.5558 101.152 105.956L101.161 105.984H30.7778ZM106.551 105.984C103.084 95.0244 100.437 83.8216 98.6332 72.4688H126.125V105.984H106.551Z" fill="#282B2D"/>
<path d="M47.0632 11.4531C47.747 11.4531 48.4027 11.1815 48.8862 10.698C49.3697 10.2145 49.6413 9.55875 49.6414 8.875V5.4375C49.6414 4.75374 49.3697 4.09798 48.8862 3.61449C48.4028 3.131 47.747 2.85938 47.0632 2.85938C46.3795 2.85938 45.7237 3.131 45.2402 3.61449C44.7567 4.09798 44.4851 4.75374 44.4851 5.4375V8.875C44.4851 9.55875 44.7568 10.2145 45.2403 10.698C45.7237 11.1815 46.3795 11.4531 47.0632 11.4531Z" fill="#282B2D"/>
<path d="M65.9695 11.4531C66.6532 11.4531 67.309 11.1815 67.7925 10.698C68.2759 10.2145 68.5476 9.55875 68.5476 8.875V5.4375C68.5476 4.75374 68.276 4.09798 67.7925 3.61449C67.309 3.131 66.6532 2.85938 65.9695 2.85938C65.2857 2.85938 64.63 3.131 64.1465 3.61449C63.663 4.09798 63.3914 4.75374 63.3914 5.4375V8.875C63.3914 9.55875 63.663 10.2145 64.1465 10.698C64.63 11.1815 65.2857 11.4531 65.9695 11.4531Z" fill="#282B2D"/>
<path d="M84.8757 11.4531C85.5595 11.4531 86.2152 11.1815 86.6987 10.698C87.1822 10.2145 87.4538 9.55875 87.4539 8.875V5.4375C87.4539 4.75374 87.1822 4.09798 86.6987 3.61449C86.2153 3.131 85.5595 2.85938 84.8757 2.85938C84.192 2.85938 83.5362 3.131 83.0527 3.61449C82.5692 4.09798 82.2976 4.75374 82.2976 5.4375V8.875C82.2976 9.55875 82.5693 10.2145 83.0528 10.698C83.5362 11.1815 84.192 11.4531 84.8757 11.4531Z" fill="#282B2D"/>
</svg>
