<svg width="156" height="115" viewBox="0 0 156 115" fill="none" xmlns="http://www.w3.org/2000/svg">
<path d="M13.6868 86.6657C7.21407 70.5841 28.1263 54.6078 52.1529 49.9289C76.1795 45.25 80.7043 20.1777 103.113 11.1584C154.607 -9.56762 147.019 57.647 114.797 75.7515C82.5747 93.8559 25.9406 117.111 13.6868 86.6657Z" fill="#F5F5F5"/>
<g clip-path="url(#clip0_4210_376)">
<path d="M129.561 56.1406H108.911C105.881 52.1148 102.095 48.7183 97.7644 46.1414V26.0625C97.7644 25.3787 97.4928 24.723 97.0093 24.2395C96.5258 23.756 95.87 23.4844 95.1863 23.4844C94.5025 23.4844 93.8468 23.756 93.3633 24.2395C92.8798 24.723 92.6082 25.3787 92.6082 26.0625V43.5662C83.2509 39.707 72.7467 39.707 63.3894 43.5664V26.0625C63.3894 25.3787 63.1178 24.723 62.6343 24.2395C62.1508 23.756 61.495 23.4844 60.8113 23.4844C60.1275 23.4844 59.4718 23.756 58.9883 24.2395C58.5048 24.723 58.2332 25.3787 58.2332 26.0625V46.1416C53.9032 48.7186 50.117 52.115 47.0865 56.1406H26.4363C26.0977 56.1406 25.7624 56.2072 25.4496 56.3368C25.1368 56.4663 24.8526 56.6562 24.6132 56.8956C24.3737 57.135 24.1838 57.4193 24.0543 57.7321C23.9248 58.0449 23.8581 58.3802 23.8582 58.7188V93.0938C23.8581 93.4323 23.9248 93.7676 24.0543 94.0804C24.1838 94.3932 24.3737 94.6775 24.6132 94.9169C24.8526 95.1563 25.1368 95.3462 25.4496 95.4757C25.7624 95.6053 26.0977 95.6719 26.4363 95.6719H47.0865C50.6834 100.474 55.3497 104.373 60.7155 107.058C66.0812 109.743 71.9987 111.141 77.9988 111.141C83.9988 111.141 89.9164 109.743 95.2821 107.058C100.648 104.373 105.314 100.474 108.911 95.6719H129.561C130.245 95.6718 130.901 95.4002 131.384 94.9167C131.868 94.4332 132.139 93.7775 132.139 93.0938V58.7188C132.139 58.035 131.868 57.3793 131.384 56.8958C130.901 56.4123 130.245 56.1407 129.561 56.1406ZM126.983 90.5156H107.595C107.18 90.5155 106.771 90.6157 106.403 90.8077C106.035 90.9997 105.719 91.2778 105.482 91.6184C102.4 96.0524 98.2902 99.6748 93.5044 102.176C88.7187 104.678 83.3987 105.984 77.9986 105.984C72.5984 105.984 67.2785 104.678 62.4928 102.176C57.7071 99.6741 53.5978 96.0516 50.5156 91.6175C50.2779 91.2773 49.9616 90.9994 49.5935 90.8076C49.2255 90.6157 48.8166 90.5156 48.4015 90.5156H29.0144V61.2969H48.4015C48.8166 61.2969 49.2255 61.1968 49.5936 61.0049C49.9616 60.8131 50.2779 60.5352 50.5156 60.195C53.5978 55.7609 57.7072 52.1383 62.4928 49.6366C67.2785 47.1349 72.5985 45.8282 77.9986 45.8281C83.3987 45.828 88.7187 47.1345 93.5045 49.6361C98.2902 52.1377 102.4 55.7601 105.482 60.1941C105.719 60.5347 106.035 60.8128 106.403 61.0048C106.771 61.1968 107.18 61.297 107.595 61.2969H126.983V90.5156Z" fill="#282B2D"/>
<path d="M79.6311 55.0043C79.1704 54.6278 78.5937 54.4221 77.9988 54.4221C77.4038 54.4221 76.8271 54.6278 76.3664 55.0043C75.7614 55.4995 61.5557 67.2865 61.5557 81.5778C61.6455 85.8531 63.4268 89.9184 66.5091 92.8826C69.5914 95.8467 73.7232 97.4679 77.9988 97.3907C82.2743 97.4678 86.4059 95.8466 89.4881 92.8825C92.5702 89.9183 94.3513 85.8531 94.441 81.5778C94.441 67.2865 80.2362 55.4996 79.6311 55.0043ZM77.9988 92.2344C75.0904 92.3123 72.2698 91.2346 70.1543 89.2373C68.0389 87.24 66.8011 84.4858 66.7119 81.5778C66.7119 72.3303 74.526 63.8071 78.0013 60.4745C81.4783 63.7995 89.2848 72.3001 89.2848 81.5778C89.1958 84.4857 87.9582 87.2399 85.8429 89.2372C83.7276 91.2346 80.907 92.3123 77.9988 92.2344Z" fill="#282B2D"/>
<path d="M68.5457 23.4844V31.3047C68.4569 32.0886 68.6761 32.8764 69.1571 33.5017C69.6382 34.1271 70.3434 34.541 71.1238 34.6562H84.8738C85.6543 34.5409 86.3594 34.1269 86.8404 33.5016C87.3214 32.8763 87.5407 32.0886 87.452 31.3047V23.4844H68.5457Z" fill="#FFCC00"/>
<path d="M98.6238 2.85938H57.3738C55.3225 2.85938 53.3552 3.67424 51.9048 5.12472C50.4543 6.5752 49.6394 8.54247 49.6394 10.5938C49.6394 12.645 50.4543 14.6123 51.9048 16.0628C53.3552 17.5133 55.3225 18.3281 57.3738 18.3281H98.6238C100.675 18.3281 102.642 17.5133 104.093 16.0628C105.543 14.6123 106.358 12.645 106.358 10.5938C106.358 8.54247 105.543 6.5752 104.093 5.12472C102.642 3.67424 100.675 2.85938 98.6238 2.85938Z" fill="#FFCC00"/>
</g>
<defs>
<clipPath id="clip0_4210_376">
<rect width="110" height="110" fill="white" transform="translate(22.9988 2)"/>
</clipPath>
</defs>
</svg>
