<svg width="78" height="78" viewBox="0 0 78 78" fill="none" xmlns="http://www.w3.org/2000/svg">
<g clip-path="url(#clip0_4294_203)">
<path d="M73.125 34.7344H41.4375C40.3066 34.7357 39.2224 35.1856 38.4228 35.9853C37.6231 36.7849 37.1732 37.8691 37.1719 39V57.2812C37.1732 58.4121 37.6231 59.4963 38.4228 60.296C39.2224 61.0957 40.3066 61.5455 41.4375 61.5469H73.125C74.2559 61.5455 75.3401 61.0957 76.1397 60.296C76.9394 59.4963 77.3893 58.4121 77.3906 57.2812V39C77.3893 37.8691 76.9394 36.7849 76.1397 35.9853C75.3401 35.1856 74.2559 34.7357 73.125 34.7344ZM46.3125 54.2344C46.3125 54.7192 46.1199 55.1842 45.7771 55.5271C45.4342 55.8699 44.9692 56.0625 44.4844 56.0625C43.9995 56.0625 43.5345 55.8699 43.1917 55.5271C42.8489 55.1842 42.6562 54.7192 42.6562 54.2344V42.0469C42.6562 41.562 42.8489 41.097 43.1917 40.7542C43.5345 40.4114 43.9995 40.2188 44.4844 40.2188C44.9692 40.2188 45.4342 40.4114 45.7771 40.7542C46.1199 41.097 46.3125 41.562 46.3125 42.0469V54.2344ZM54.8438 54.2344C54.8438 54.7192 54.6511 55.1842 54.3083 55.5271C53.9655 55.8699 53.5005 56.0625 53.0156 56.0625C52.5308 56.0625 52.0658 55.8699 51.7229 55.5271C51.3801 55.1842 51.1875 54.7192 51.1875 54.2344V42.0469C51.1875 41.562 51.3801 41.097 51.7229 40.7542C52.0658 40.4114 52.5308 40.2188 53.0156 40.2188C53.5005 40.2188 53.9655 40.4114 54.3083 40.7542C54.6511 41.097 54.8438 41.562 54.8438 42.0469V54.2344ZM63.375 54.2344C63.375 54.7192 63.1824 55.1842 62.8396 55.5271C62.4967 55.8699 62.0317 56.0625 61.5469 56.0625C61.062 56.0625 60.597 55.8699 60.2542 55.5271C59.9114 55.1842 59.7188 54.7192 59.7188 54.2344V42.0469C59.7188 41.562 59.9114 41.097 60.2542 40.7542C60.597 40.4114 61.062 40.2188 61.5469 40.2188C62.0317 40.2188 62.4967 40.4114 62.8396 40.7542C63.1824 41.097 63.375 41.562 63.375 42.0469V54.2344ZM71.9062 54.2344C71.9062 54.7192 71.7136 55.1842 71.3708 55.5271C71.028 55.8699 70.563 56.0625 70.0781 56.0625C69.5933 56.0625 69.1283 55.8699 68.7854 55.5271C68.4426 55.1842 68.25 54.7192 68.25 54.2344V42.0469C68.25 41.562 68.4426 41.097 68.7854 40.7542C69.1283 40.4114 69.5933 40.2188 70.0781 40.2188C70.563 40.2188 71.028 40.4114 71.3708 40.7542C71.7136 41.097 71.9062 41.562 71.9062 42.0469V54.2344Z" fill="#FFCC00"/>
<path d="M75.5625 73.7344H35.9531V68.25C35.9515 66.7959 35.3732 65.4019 34.345 64.3737C33.3169 63.3455 31.9228 62.7672 30.4688 62.7656H29.7664L27.1533 12.7958L55.4531 12.7966V19.6579L39.3118 28.8799C39.1034 28.999 38.9205 29.1579 38.7735 29.3477C38.6265 29.5375 38.5184 29.7544 38.4552 29.986C38.392 30.2176 38.3751 30.4594 38.4054 30.6975C38.4357 30.9356 38.5125 31.1655 38.6316 31.3739C38.7507 31.5823 38.9097 31.7652 39.0995 31.9122C39.2893 32.0592 39.5062 32.1673 39.7378 32.2305C39.9694 32.2937 40.2111 32.3106 40.4493 32.2803C40.6874 32.2501 40.9172 32.1732 41.1257 32.0541L57.2812 22.8242L73.4368 32.0541C73.6452 32.1732 73.8751 32.2501 74.1132 32.2803C74.3514 32.3106 74.5931 32.2937 74.8247 32.2305C75.0563 32.1673 75.2732 32.0592 75.463 31.9122C75.6528 31.7652 75.8118 31.5823 75.9309 31.3739C76.05 31.1655 76.1268 30.9356 76.1571 30.6975C76.1874 30.4594 76.1705 30.2176 76.1073 29.986C76.0441 29.7544 75.936 29.5375 75.789 29.3477C75.642 29.1579 75.4591 28.999 75.2507 28.8799L59.1094 19.6579V12.7967L64.5938 12.7969C65.0786 12.7969 65.5436 12.6043 65.8864 12.2614C66.2293 11.9186 66.4219 11.4536 66.4219 10.9688C66.4219 10.4839 66.2293 10.0189 65.8864 9.67607C65.5436 9.33323 65.0786 9.14062 64.5938 9.14062L26.962 9.1395L26.6066 2.34229C26.582 1.8746 26.379 1.43416 26.0393 1.11174C25.6996 0.789331 25.2492 0.60952 24.7808 0.609375H11.7817C11.3133 0.609536 10.8629 0.789353 10.5232 1.11177C10.1836 1.43418 9.98053 1.87461 9.95597 2.34229L9.60048 9.13906L2.4375 9.13885C1.95265 9.13885 1.48766 9.33145 1.14482 9.67429C0.80198 10.0171 0.609375 10.4821 0.609375 10.967C0.609375 11.4518 0.80198 11.9168 1.14482 12.2597C1.48766 12.6025 1.95265 12.7951 2.4375 12.7951L9.40931 12.7953L6.7961 62.7656H6.09375C4.63969 62.7672 3.24564 63.3455 2.21746 64.3737C1.18928 65.4019 0.610959 66.7959 0.609375 68.25V75.5625C0.609401 76.0473 0.802015 76.5123 1.14485 76.8552C1.48768 77.198 1.95266 77.3906 2.4375 77.3906H75.5625C76.0473 77.3906 76.5123 77.198 76.8552 76.8552C77.198 76.5123 77.3906 76.0473 77.3906 75.5625C77.3906 75.0777 77.198 74.6127 76.8552 74.2698C76.5123 73.927 76.0473 73.7344 75.5625 73.7344ZM12.2476 28.5328L24.1298 40.1997L10.9796 52.7745L12.2476 28.5328ZM13.0707 12.7969H19.8856L12.7039 19.8089L13.0707 12.7969ZM23.5709 14.3089L24.6857 35.6216L13.2468 24.3893L23.5709 14.3089ZM25.1393 44.2934L25.723 55.4531H13.4693L25.1393 44.2934ZM13.5169 4.26562H23.0456L23.3005 9.13941L13.262 9.13911L13.5169 4.26562ZM10.6482 59.1094H25.9143L26.1055 62.7656H10.457L10.6482 59.1094ZM4.26562 73.7344V68.25C4.26615 67.7653 4.45893 67.3006 4.80165 66.9579C5.14438 66.6152 5.60906 66.4224 6.09375 66.4219H30.4688C30.9534 66.4224 31.4181 66.6152 31.7608 66.9579C32.1036 67.3006 32.2963 67.7653 32.2969 68.25V73.7344H4.26562Z" fill="#282B2D"/>
</g>
<defs>
<clipPath id="clip0_4294_203">
<rect width="78" height="78" fill="white"/>
</clipPath>
</defs>
</svg>
