<svg width="78" height="78" viewBox="0 0 78 78" fill="none" xmlns="http://www.w3.org/2000/svg">
<path d="M18.2827 28.641H32.9076C34.0389 28.641 35.1239 29.0904 35.9239 29.8903C36.7238 30.6903 37.1732 31.7753 37.1732 32.9066V64.5938C37.1732 65.7251 36.7238 66.8101 35.9239 67.6101C35.1239 68.41 34.0389 68.8595 32.9076 68.8595H18.2827C17.1514 68.8595 16.0664 68.41 15.2665 67.6101C14.4665 66.8101 14.0171 65.7251 14.0171 64.5938V32.9066C14.0171 31.7753 14.4665 30.6903 15.2665 29.8903C16.0664 29.0904 17.1514 28.641 18.2827 28.641Z" fill="#FFCC00"/>
<path d="M72.4938 72.8072L69.0839 40.9843C68.9741 39.9367 68.4798 38.9671 67.6964 38.2629C66.9131 37.5587 65.8965 37.1701 64.8431 37.1722H63.9862V14.0161C63.9837 11.9158 63.1483 9.90224 61.6632 8.41714C60.178 6.93204 58.1644 6.09666 56.0642 6.09426H32.298V4.87551C32.2967 3.7446 31.8468 2.66041 31.0471 1.86075C30.2474 1.06108 29.1632 0.611239 28.0323 0.609884H23.1572C22.0569 0.612577 21.0003 1.04066 20.2084 1.80458C19.4165 2.56849 18.9507 3.60905 18.9084 4.70854L7.93801 0.719414C7.71231 0.637356 7.47267 0.600555 7.23275 0.611113C6.99284 0.62167 6.75735 0.679379 6.53974 0.780944C6.10025 0.986064 5.76025 1.35737 5.59453 1.81317C5.4288 2.26898 5.45094 2.77195 5.65606 3.21144C5.86118 3.65093 6.23248 3.99093 6.68829 4.15665L15.3697 7.313L6.68829 10.4694C6.46226 10.5512 6.25458 10.6767 6.07713 10.8389C5.89967 11.001 5.75592 11.1965 5.6541 11.4143C5.55228 11.632 5.49439 11.8677 5.48373 12.1078C5.47308 12.348 5.50987 12.5878 5.592 12.8137C5.67414 13.0396 5.8 13.2471 5.9624 13.4244C6.1248 13.6016 6.32054 13.745 6.53844 13.8465C6.75633 13.948 6.99209 14.0056 7.23224 14.0159C7.4724 14.0262 7.71222 13.989 7.93801 13.9066L18.8915 9.92357V12.752C14.976 14.139 11.5855 16.7035 9.1852 20.0937C6.78491 23.484 5.4924 27.5339 5.48498 31.6878V71.9062C5.48659 73.3603 6.06494 74.7544 7.09314 75.7825C8.12133 76.8107 9.51539 77.389 10.9695 77.3906H40.2201C41.6742 77.389 43.0682 76.8107 44.0964 75.7825C45.1246 74.7544 45.703 73.3603 45.7046 71.9062V31.6878C45.6972 27.5339 44.4046 23.484 42.0044 20.0937C39.6041 16.7035 36.2136 14.139 32.298 12.752V9.75048H56.0642C57.1951 9.75184 58.2793 10.2017 59.0789 11.0013C59.8786 11.801 60.3285 12.8852 60.3299 14.0161V37.1722H59.4729C58.4198 37.1701 57.4033 37.5585 56.62 38.2624C55.8367 38.9664 55.3422 39.9357 55.2322 40.9831L51.8211 72.818C51.7612 73.395 51.8231 73.9781 52.0028 74.5297C52.1825 75.0813 52.476 75.589 52.8642 76.02C53.2525 76.451 53.727 76.7957 54.2569 77.0318C54.7868 77.2679 55.3603 77.3902 55.9404 77.3906H68.3757C68.9567 77.3902 69.5312 77.2676 70.0618 77.0309C70.5924 76.7941 71.0673 76.4483 71.4556 76.0161C71.8439 75.5839 72.137 75.0749 72.3159 74.5221C72.4948 73.9693 72.5554 73.385 72.4938 72.8072ZM42.0482 31.6878V71.9062C42.0477 72.3909 41.8549 72.8556 41.5122 73.1983C41.1695 73.5411 40.7048 73.7338 40.2201 73.7344H10.9695C10.4848 73.7338 10.0201 73.5411 9.67738 73.1983C9.33465 72.8556 9.14188 72.3909 9.14134 71.9062V31.6878C9.14509 27.3265 10.8802 23.1452 13.9655 20.0626C17.0507 16.9801 21.2335 15.2485 25.5948 15.2485C29.9561 15.2485 34.139 16.9801 37.2242 20.0626C40.3094 23.1452 42.0445 27.3266 42.0482 31.6878ZM25.5948 11.5786C24.5741 11.5864 23.5555 11.672 22.5479 11.8347V4.87551C22.5482 4.71399 22.6125 4.55918 22.7267 4.44497C22.8409 4.33076 22.9958 4.26646 23.1573 4.26613H28.0324C28.1939 4.26646 28.3487 4.33076 28.4629 4.44497C28.5771 4.55918 28.6414 4.71399 28.6418 4.87551V11.8347C27.6341 11.672 26.6155 11.5864 25.5948 11.5786ZM68.3757 73.7344H55.9404C55.8728 73.7328 55.8062 73.7174 55.7447 73.6892C55.6833 73.661 55.6282 73.6205 55.583 73.5702C55.5377 73.52 55.5032 73.461 55.4816 73.3969C55.46 73.3328 55.4516 73.265 55.4572 73.1976L58.8671 41.3723C58.8829 41.2228 58.9536 41.0844 59.0655 40.9839C59.1774 40.8835 59.3225 40.828 59.4729 40.8284H64.8431C64.9937 40.8281 65.139 40.8837 65.2509 40.9844C65.3628 41.0851 65.4334 41.2237 65.449 41.3735L68.8613 73.2488C68.8612 73.3776 68.81 73.501 68.7189 73.592C68.6279 73.683 68.5044 73.7342 68.3757 73.7344Z" fill="#282B2D"/>
</svg>
